<svg width="255" height="266" viewBox="0 0 255 266" fill="none" xmlns="http://www.w3.org/2000/svg">
<path d="M134.976 247.648C137.046 247.648 140.568 245.002 142.954 242.659H150.523L149.909 250.595C147.591 250.52 141.727 250.595 136.817 251.502C130.68 252.636 132.112 247.648 134.976 247.648Z" fill="#465173" stroke="#072A69" stroke-width="0.575" stroke-linecap="round" stroke-linejoin="round"/>
<path d="M186.952 246.377C188.434 244.805 187.424 241.584 187.599 238.061L193.019 232.314L197.775 238.576C196.065 240.281 192.919 250.558 188.893 250.558C182.664 250.558 184.901 248.551 186.952 246.377Z" fill="#465173" stroke="#072A69" stroke-width="0.575" stroke-linecap="round" stroke-linejoin="round"/>
<path d="M180.337 165.158C182.573 154.608 178.695 144.591 175.409 142.426C175.409 142.426 171.19 139.055 164.208 138.003C157.227 136.951 152.505 138.845 152.505 138.845C147.577 152.453 139.066 175.809 139.066 182.728C139.066 185.513 142.352 241.241 140.914 243.56H152.002C152.002 243.56 152.505 199.859 154.261 189.869C156.017 179.88 159.189 166.213 159.189 166.213C159.189 166.213 162.679 190.762 166.58 197.011C170.482 203.26 186.292 238.968 186.292 238.968L195.532 231.826C188.517 216.112 184.025 205.873 181.569 197.011C177.859 183.62 178.881 172.031 180.337 165.158Z" fill="#C6C7FF" stroke="#072A69" stroke-width="0.575" stroke-linecap="round" stroke-linejoin="round"/>
<path d="M166.48 149.399C167.299 153.221 170.408 160.149 176.3 157.282" stroke="#072A69" stroke-width="0.575" stroke-linecap="round" stroke-linejoin="round"/>
<path d="M159.116 166.519C159.116 166.519 158.297 158.068 158.297 148.047C158.297 148.047 157.07 156.157 156.865 160.888C156.661 165.618 157.479 173.953 157.479 173.953L159.116 166.519Z" fill="#072A69" stroke="#072A69" stroke-width="0.575" stroke-linecap="round" stroke-linejoin="round"/>
<path d="M154.824 118.046C155.969 119.519 158.574 121.388 159.734 122.138C160.552 121.81 157.044 118.864 155.817 117.023C154.589 117.023 153.678 116.573 154.824 118.046Z" fill="#2C2E34" stroke="#2C2E34" stroke-width="0.884974" stroke-linecap="round" stroke-linejoin="round"/>
<path d="M139.859 92.881C148.861 93.9039 152.804 92.6764 162.364 90.0168C162.364 90.0168 164.205 90.6306 168.092 90.2214C171.979 89.8122 173.15 87.971 173.15 87.971C175.37 89.744 181.212 100.041 181.212 110.884C181.212 121.727 182.562 144.272 185.508 144.436C188.454 144.6 172.071 146.687 167.217 144.436C162.364 142.186 151.464 141.163 145.122 143.413C146.761 137.416 150.223 124.621 150.965 121.426C146.325 123.044 142.428 124.037 140.909 123.773C136.203 122.955 117.995 115.999 117.995 115.999C118.986 114.954 123.928 110.326 123.928 108.839C127.951 108.787 138.249 115.385 151.892 110.326C152.593 108.506 152.943 107.115 153.771 105.361C151.103 106.384 111.449 90.6307 107.766 89.4032C108.796 86.8687 113.699 82.8564 115.336 82.8564C127.202 89.1985 139.859 92.881 139.859 92.881Z" fill="white"/>
<path d="M172.797 96.5635C170.597 102.065 159.355 108.224 151.892 110.326M174.843 108.839C173.697 111.887 160.698 118.031 150.965 121.426M153.771 105.361C155.517 101.663 156.738 96.9429 159.09 93.9039C157.126 95.8679 154.997 102.769 153.771 105.361ZM153.771 105.361C151.103 106.384 111.449 90.6307 107.766 89.4032C108.796 86.8687 113.699 82.8564 115.336 82.8564C127.202 89.1985 139.859 92.881 139.859 92.881C148.861 93.9039 152.804 92.6764 162.364 90.0168C162.364 90.0168 164.205 90.6306 168.092 90.2214C171.979 89.8122 173.15 87.971 173.15 87.971C175.37 89.744 181.212 100.041 181.212 110.884C181.212 121.727 182.562 144.272 185.508 144.436C188.454 144.6 172.071 146.687 167.217 144.436C162.364 142.186 151.464 141.163 145.122 143.413C146.761 137.416 150.223 124.621 150.965 121.426M153.771 105.361C152.943 107.115 152.593 108.506 151.892 110.326M151.892 110.326C138.249 115.385 127.951 108.787 123.928 108.839C123.928 110.326 118.986 114.954 117.995 115.999C117.995 115.999 136.203 122.955 140.909 123.773C142.428 124.037 146.325 123.044 150.965 121.426" stroke="#2C2E34" stroke-width="0.575" stroke-linecap="round" stroke-linejoin="round"/>
<path d="M150.322 124.619C150.322 124.619 151.207 122.407 151.207 121.522C159.172 119.31 174.659 109.132 174.659 109.132C166.251 116.655 150.322 124.619 150.322 124.619Z" fill="#2C2E34" stroke="#2C2E34" stroke-width="0.575" stroke-linecap="round" stroke-linejoin="round"/>
<path d="M162.39 143.005C160.589 141.368 162.321 124.593 163.413 116.409L160.958 117.637C160.139 121.401 159.662 135.845 159.526 142.596L162.39 143.005Z" fill="#C6C7FF" stroke="#2C2E34" stroke-width="0.575" stroke-linecap="round" stroke-linejoin="round"/>
<path d="M165.459 90.4263C166.482 90.4263 167.845 90.3581 168.323 90.2217C167.995 90.7127 165.663 100.314 165.049 104.133C164.722 104.461 163.004 105.361 162.185 105.77C162.022 102.988 164.436 93.836 165.459 90.4263Z" fill="#C6C7FF" stroke="#2C2E34" stroke-width="0.575" stroke-linecap="round" stroke-linejoin="round"/>
<path d="M161.572 103.724L161.981 105.974L162.8 105.565C162.595 102.292 161.572 99.0183 160.549 98.4045C159.731 97.9135 160.345 96.1541 160.549 95.3358L163.004 90.2212L161.981 90.0166C160.549 91.2441 159.049 95.1312 158.708 96.1541C158.504 96.7679 158.435 97.2452 158.094 97.3816C156.294 97.2179 154.821 100.041 154.003 101.882C152.634 104.962 151.889 108.634 151.752 110.066L152.98 109.861C153.184 109.043 154.275 104.678 155.23 102.496L156.049 102.701C156.39 101.201 157.481 98.5905 158.708 98.8137C160.508 99.141 160.959 102.155 160.959 103.724H161.572Z" fill="#EF4431" stroke="#2C2E34" stroke-width="0.575" stroke-linecap="round" stroke-linejoin="round"/>
<path d="M132.887 93.3913L132.887 93.3913C137.438 88.8426 137.441 81.7017 132.891 77.1328C130.684 74.9374 127.797 73.7343 124.748 73.7343C121.881 73.7343 119.16 74.8006 117.025 76.7458C116.938 76.825 116.806 76.825 116.719 76.7458C114.584 74.8006 111.861 73.7343 108.996 73.7343C105.947 73.7343 103.06 74.9375 100.861 77.1249C96.3033 81.7018 96.306 88.8427 100.857 93.3913L100.857 93.3913L116.872 109.407L132.887 93.3913Z" fill="#EF4431" stroke="#2C2E34" stroke-width="0.454953" stroke-linejoin="round"/>
<path d="M116.965 83.0103V97.7737" stroke="#F7F9FE" stroke-linecap="round"/>
<path d="M123.779 90.3105H110.152" stroke="#F7F9FE" stroke-linecap="round"/>
<path d="M123.316 104.303C121.163 106.49 123.939 109.381 123.939 109.381C122.427 111.398 119.81 115.007 118.897 114.512C117.985 114.016 117.112 113.492 116.292 112.94C115.49 112.489 110.377 109.871 111.172 108.309C109.794 107.419 110.854 105.735 111.234 106.014C110.427 105.421 111.187 104.304 112.064 104.712C117.329 107.167 118.815 106.933 120.146 106.933C120.146 103.076 124.361 103.242 123.316 104.303Z" fill="#F5B896"/>
<path d="M111.234 106.014C110.427 105.421 111.187 104.304 112.064 104.712C117.329 107.167 118.815 106.933 120.146 106.933C120.146 103.076 124.361 103.242 123.316 104.303C121.163 106.49 123.939 109.381 123.939 109.381C122.427 111.398 119.81 115.007 118.897 114.512C117.985 114.016 117.112 113.492 116.292 112.94C115.49 112.489 110.377 109.871 111.172 108.309M111.234 106.014C110.854 105.735 109.794 107.419 111.172 108.309M111.234 106.014C112.478 106.927 115.538 108.707 117.828 108.521M111.172 108.309C112.55 109.199 115.711 110.916 117.329 110.668" stroke="#2C2E34" stroke-width="0.575" stroke-linecap="round" stroke-linejoin="round"/>
<path d="M172.824 88.5859C172.169 93.0049 169.278 100.52 168.323 101.884L166.482 103.316C166.891 102.498 170.369 92.8822 171.187 89.4043L172.824 88.5859Z" fill="#EF4431" stroke="#2C2E34" stroke-width="0.575" stroke-linecap="round" stroke-linejoin="round"/>
<path d="M166.679 124.347C165.761 119.975 165.65 116.588 166.073 114.978L167.17 114.568C167.07 115.478 166.679 119.069 167.709 124.184L166.679 124.347Z" fill="#EF4431" stroke="#2C2E34" stroke-width="0.575" stroke-linecap="round" stroke-linejoin="round"/>
<circle cx="1.84125" cy="1.84125" r="1.84125" transform="matrix(-1 0 0 1 168.937 122.752)" fill="#EF4431" stroke="#2C2E34" stroke-width="0.575" stroke-linecap="round" stroke-linejoin="round"/>
<path d="M151.464 77.9781V62.2251C151.464 62.2251 153.101 54.037 163.126 53.8324C173.15 53.6278 174.173 61.8112 174.173 61.8112C174.173 65.7297 172.933 67.9301 171.397 69.1228C173.089 68.1051 175.651 67.2999 176.219 69.9993C176.874 73.109 173.491 74.2956 171.718 74.5001C170.409 81.5378 171.718 86.707 172.536 88.4118C170.9 91.6852 165.171 91.1396 162.512 90.4577V85.3431C151.546 85.6704 151.464 81.6606 151.464 77.9781Z" fill="#F5B896"/>
<path d="M151.464 62.2251V77.9781C151.464 81.6606 151.546 85.6704 162.512 85.3431V90.4577C165.171 91.1396 170.9 91.6852 172.536 88.4118C171.718 86.707 170.409 81.5378 171.718 74.5001C173.491 74.2956 176.874 73.109 176.219 69.9993C175.564 66.8896 172.264 68.4308 170.695 69.5901C172.536 68.5462 174.173 66.312 174.173 61.8112C174.173 61.8112 173.15 53.6278 163.126 53.8324C153.101 54.037 151.464 62.2251 151.464 62.2251Z" stroke="#2C2E34" stroke-width="0.575" stroke-linejoin="round"/>
<path d="M162.716 85.3427C164.15 85.2776 166.504 84.8513 167.14 83.6715C167.166 83.6134 167.192 83.5567 167.217 83.5015C167.195 83.5598 167.169 83.6165 167.14 83.6715C166.146 85.8379 163.991 89.9339 162.716 90.2527V85.3427Z" fill="#2C2E34"/>
<path d="M162.716 85.3427C164.217 85.2745 166.726 84.8108 167.217 83.5015C166.262 85.6155 164.026 89.9254 162.716 90.2527V85.3427Z" stroke="#2C2E34" stroke-width="0.575" stroke-linecap="round" stroke-linejoin="round"/>
<path d="M170.301 69.995V64.8804C168.815 64.1441 165.977 64.2687 161.898 64.0621C161.655 64.0497 161.46 56.703 160.875 56.6971L159.77 62.3795C159.629 63.3552 159.514 64.0621 159.443 64.0621C155.338 64.0621 151.464 63.9939 150.032 64.8804C147.782 62.6299 152.283 49.3319 163.33 53.0147C168.591 51.5144 178.469 54.0374 175.401 68.3582C173.15 67.3353 171.051 69.2449 170.301 69.995Z" fill="#2C2E34"/>
<path d="M159.443 64.0621C155.338 64.0621 151.464 63.9939 150.032 64.8804C147.782 62.6299 152.283 49.3319 163.33 53.0147C168.591 51.5144 178.469 54.0374 175.401 68.3582C173.15 67.3353 171.051 69.2449 170.301 69.995V64.8804C168.815 64.1441 165.977 64.2687 161.898 64.0621C161.655 64.0497 161.46 56.703 160.875 56.6971M159.443 64.0621C159.671 64.0621 160.368 56.6919 160.875 56.6971M159.443 64.0621L160.875 56.6971" stroke="#2C2E34" stroke-width="0.575" stroke-linecap="round" stroke-linejoin="round"/>
<path d="M155.428 65.6668C154.405 65.2576 152.564 65.9123 152.564 67.7126" stroke="#2C2E34" stroke-width="0.575" stroke-linecap="round" stroke-linejoin="round"/>
<path d="M163.657 65.5977C164.271 65.3932 165.58 65.8432 165.908 66.8252" stroke="#2C2E34" stroke-width="0.575" stroke-linecap="round" stroke-linejoin="round"/>
<path d="M165.048 75.4927C165.048 77.1293 164.025 78.5935 162.529 79.4488C160.237 80.7581 157.479 80.4027 155.982 79.2442" stroke="#2C2E34" stroke-width="0.575" stroke-linecap="round" stroke-linejoin="round"/>
<circle cx="162.184" cy="71.0659" r="0.613751" fill="#2C2E34"/>
<circle cx="155.194" cy="71.2041" r="0.613751" fill="#2C2E34"/>
<path d="M160.461 73.1096C160.132 72.0288 158.989 71.4196 157.908 71.7489C156.827 72.0782 156.218 73.2214 156.547 74.3022C156.742 74.9425 157.223 75.4173 157.807 75.6295" stroke="#2C2E34" stroke-width="0.575" stroke-linecap="round" stroke-linejoin="round"/>
<circle cx="2.65959" cy="2.65959" r="2.65959" transform="matrix(-1 0 0 1 165.254 68.333)" stroke="#2C2E34" stroke-width="0.575" stroke-linecap="round" stroke-linejoin="round"/>
<path d="M152.442 70.9926C152.442 72.4614 153.633 73.6522 155.102 73.6522C155.544 73.6522 155.962 73.544 156.329 73.3526C156.329 73.3526 156.329 72.9227 156.738 72.4247C157.122 71.958 157.633 71.8109 157.633 71.8109C157.716 71.5531 157.761 71.2781 157.761 70.9926C157.761 69.5237 156.57 68.333 155.102 68.333C153.633 68.333 152.442 69.5237 152.442 70.9926Z" stroke="#2C2E34" stroke-width="0.575" stroke-linecap="round" stroke-linejoin="round"/>
<path d="M170.574 68.9463C169.346 69.6282 166.646 70.9921 165.664 70.9921" stroke="#2C2E34" stroke-width="0.575" stroke-linecap="round" stroke-linejoin="round"/>
<path d="M163.208 82.2446L163.208 85.1088" stroke="#2C2E34" stroke-width="0.575" stroke-linecap="round" stroke-linejoin="round"/>
<path d="M161.572 82.6538V85.1088" stroke="#2C2E34" stroke-width="0.575" stroke-linecap="round" stroke-linejoin="round"/>
<path d="M159.935 83.063V85.1088" stroke="#2C2E34" stroke-width="0.575" stroke-linecap="round" stroke-linejoin="round"/>
<path d="M158.299 83.063V85.1088" stroke="#2C2E34" stroke-width="0.575" stroke-linecap="round" stroke-linejoin="round"/>
<path d="M156.662 83.063V84.6997" stroke="#2C2E34" stroke-width="0.575" stroke-linecap="round" stroke-linejoin="round"/>
<path d="M155.025 82.6538V84.2905" stroke="#2C2E34" stroke-width="0.575" stroke-linecap="round" stroke-linejoin="round"/>
<path d="M105.375 78.4666C104.721 79.0968 103.041 77.7894 102.007 76.7163C100.973 75.6432 101.149 75.0447 101.631 74.5806C102.112 74.1165 102.717 73.9625 103.751 75.0356C104.785 76.1086 106.029 77.8363 105.375 78.4666Z" fill="#FFC6B7" stroke="#2C2E34" stroke-width="0.575" stroke-linecap="round" stroke-linejoin="round"/>
<path d="M103.718 79.9675C103.064 80.5978 101.384 79.2904 100.35 78.2173C99.316 77.1442 99.4924 76.5457 99.974 76.0816C100.456 75.6175 101.06 75.4635 102.094 76.5365C103.128 77.6096 104.373 79.3373 103.718 79.9675Z" fill="#FFC6B7" stroke="#2C2E34" stroke-width="0.575" stroke-linecap="round" stroke-linejoin="round"/>
<path d="M102.435 81.6521C101.781 82.2824 100.1 80.9749 99.0663 79.9019C98.0323 78.8288 98.2087 78.2303 98.6903 77.7662C99.172 77.302 99.7766 77.148 100.811 78.2211C101.845 79.2942 103.089 81.0218 102.435 81.6521Z" fill="#FFC6B7" stroke="#2C2E34" stroke-width="0.575" stroke-linecap="round" stroke-linejoin="round"/>
<path d="M112.326 256.13C110.372 256.13 107.046 253.632 104.793 251.42H97.6455L98.225 258.914C100.414 258.843 105.952 258.914 110.588 259.77C116.383 260.841 115.031 256.13 112.326 256.13Z" fill="#465173" stroke="#2C2E34" stroke-width="0.618917" stroke-linecap="round" stroke-linejoin="round"/>
<path d="M63.2463 254.931C61.8465 253.447 62.8003 250.405 62.6348 247.078L57.5166 241.651L53.0259 247.564C54.6404 249.174 57.6113 258.879 61.4131 258.879C67.295 258.879 65.1829 256.984 63.2463 254.931Z" fill="#465173" stroke="#2C2E34" stroke-width="0.618917" stroke-linecap="round" stroke-linejoin="round"/>
<path d="M69.4925 178.236C67.381 168.273 71.0437 158.815 74.1459 156.77C74.1459 156.77 78.1306 153.587 84.7229 152.594C91.3151 151.601 95.7746 153.388 95.7746 153.388C100.428 166.239 108.464 188.294 108.464 194.827C108.464 197.457 105.362 250.081 106.719 252.271H96.2493C96.2493 252.271 95.7746 211.004 94.1165 201.571C92.4584 192.138 89.4631 179.232 89.4631 179.232C89.4631 179.232 86.167 202.414 82.4831 208.315C78.7992 214.215 63.8696 247.934 63.8696 247.934L55.1446 241.191C61.768 226.352 66.0103 216.683 68.3292 208.315C71.8328 195.67 70.8681 184.726 69.4925 178.236Z" fill="#D6EDF3" stroke="#2C2E34" stroke-width="0.575" stroke-linecap="round" stroke-linejoin="round"/>
<path d="M85.5266 107.631C98.3686 108.834 107.735 141.825 109.426 146.185L101.881 147.335C102.933 151.054 103.491 154.463 103.586 157.594C97.3653 155.387 86.1286 156.591 81.9148 158.597C78.5438 160.202 73.1641 160.208 69.6192 159.405L70.8231 152.295C65.8681 154.943 61.2416 156.222 58.7838 153.988C52.7641 145.761 71.6814 109.771 76.0958 105.223L85.5266 107.631Z" fill="#C6C7FF"/>
<path d="M91.0258 123.76C99.3731 137.726 103.318 148.765 103.586 157.594C97.3653 155.387 86.1286 156.591 81.9148 158.597C78.5438 160.202 73.1641 160.208 69.6192 159.405L70.8231 152.295M101.881 147.335L109.426 146.185C107.735 141.825 98.3686 108.834 85.5266 107.631L76.0958 105.223C71.6813 109.771 52.7641 145.761 58.7838 153.988C61.2416 156.222 65.8681 154.943 70.8231 152.295M76.8984 116.259C76.0958 122.084 74.0336 134.925 71.8264 142.55L85.5266 134.925L86.4742 140.945C82.7098 144.351 76.5472 149.237 70.8231 152.295" stroke="#2C2E34" stroke-width="0.575" stroke-linecap="round" stroke-linejoin="round"/>
<path d="M68.2817 144.441L73.5916 141.349" stroke="#2C2E34" stroke-width="0.575" stroke-linecap="round" stroke-linejoin="round"/>
<ellipse cx="98.0574" cy="142.418" rx="4.56764" ry="7.05908" transform="rotate(-113.353 98.0574 142.418)" fill="white" stroke="#2C2E34" stroke-width="0.575" stroke-linecap="round" stroke-linejoin="round"/>
<path d="M87.1115 122.214L95.3415 141.276C95.3415 141.276 96.0477 142.284 97.8981 141.276C99.7486 140.267 99.7486 139.373 99.7486 139.373L91.5186 120.312L87.1115 122.214Z" fill="white" stroke="#2C2E34" stroke-width="0.575" stroke-linecap="round" stroke-linejoin="round"/>
<ellipse cx="89.7634" cy="123.37" rx="4.98288" ry="7.05908" transform="rotate(-113.353 89.7634 123.37)" fill="white" stroke="#2C2E34" stroke-width="0.575" stroke-linecap="round" stroke-linejoin="round"/>
<path d="M90.2865 129.062C90.2865 130.467 85.6438 133.012 85.2701 135.205L86.6747 140.634C92.5491 141.032 97.3077 137.127 98.112 135.722C98.8652 134.407 97.7105 134.141 96.8273 134.53C97.5714 133.977 98.3916 133.112 98.112 132.311C97.7556 131.291 97.1087 131.468 96.4445 131.818C97.9998 129.47 96.3062 129.356 95.3028 129.903C93.0956 131.107 92.293 131.309 91.0891 131.309C90.3479 129.48 90.2865 129.062 90.2865 129.062Z" fill="#D98F6F"/>
<path d="M96.4445 131.818C97.1087 131.468 97.7556 131.291 98.112 132.311C98.4609 133.31 97.0976 134.409 96.3062 134.879M96.4445 131.818C97.9998 129.47 96.3062 129.356 95.3028 129.903C93.0956 131.107 92.293 131.309 91.0891 131.309C90.3479 129.48 90.2865 129.062 90.2865 129.062C90.2865 130.467 85.6438 133.012 85.2701 135.205L86.6747 140.634C92.5491 141.032 97.3077 137.127 98.112 135.722C99.0312 134.117 97.1088 134.076 96.3062 134.879M96.4445 131.818C95.1022 133.073 92.7897 133.975 91.0891 134.076M96.3062 134.879C95.5149 135.348 93.1625 136.525 91.8916 136.525" stroke="#2C2E34" stroke-width="0.575" stroke-linecap="round" stroke-linejoin="round"/>
<path d="M74.0351 140.906L74.9201 128.516L72.2651 142.233L74.0351 140.906Z" fill="#2C2E34" stroke="#2C2E34" stroke-width="0.575" stroke-linecap="round" stroke-linejoin="round"/>
<path d="M92.9756 100.486V85.6102C92.9756 84.6362 91.545 77.1019 81.9639 77.685C72.3828 78.2681 71.5318 85.2193 71.5318 85.2193C71.5318 88.9153 72.1162 90.9927 73.412 92.1198C71.9687 91.1606 70.1358 90.4057 69.5999 92.9513C68.9817 95.8878 72.1757 97.0083 73.85 97.2014C75.0864 103.847 73.85 108.728 73.0773 110.338C74.6228 113.429 80.032 112.914 82.5435 112.27V107.44C92.8983 107.749 92.9756 103.963 92.9756 100.486Z" fill="white"/>
<path d="M92.9756 85.6102C92.9756 86.5842 92.9756 100.486 92.9756 100.486C92.9756 103.963 92.8983 107.749 82.5435 107.44V112.27C80.032 112.914 74.6228 113.429 73.0773 110.338C73.85 108.728 75.0864 103.847 73.85 97.2014C72.1757 97.0083 68.9817 95.8878 69.5999 92.9513C70.2181 90.0149 72.5621 91.4702 74.0432 92.5649C72.3045 91.5792 71.5318 89.4694 71.5318 85.2193C71.5318 85.2193 72.3828 78.2681 81.9639 77.685C91.545 77.1019 92.9756 84.6362 92.9756 85.6102Z" stroke="#2C2E34" stroke-width="0.575" stroke-linejoin="round"/>
<path d="M67.4007 88.4932C70.0484 77.9461 78.3297 76.9216 82.6503 77.1777C88.9511 75.641 93.2755 80.8536 94.5319 89.4713C95.7921 98.1153 93.9918 103.11 92.0114 107.51C92.4314 107.318 94.5125 107.932 94.9446 109.623C95.3766 111.313 93.9244 111.992 93.1443 112.12C94.5845 113.721 94.475 114.882 91.3441 115.577C77.8001 118.585 69.2242 113.61 69.7501 112.12C69.1741 109.661 72.2614 107.702 73.3416 107.51C71.1213 105.461 64.8997 98.4562 67.4007 88.4932Z" fill="#EF4431" stroke="#2C2E34" stroke-width="0.575"/>
<path d="M75.5645 89.589C76.4025 87.2902 76.8104 85.183 83.0401 81.1602C88.3279 83.285 89.2269 84.6375 90.6938 88.4573C90.7531 91.0115 90.8362 95.7957 90.6938 99.1672C90.5514 102.539 88.1426 103.765 86.9559 103.956H80.9042C77.7716 103.956 75.9797 101.849 75.5124 99.7596C75.0451 97.67 75.5645 89.589 75.5645 89.589Z" fill="#D98F6F" stroke="#2C2E34" stroke-width="0.575" stroke-linejoin="round"/>
<path d="M83.238 81.3521C86.1358 81.3521 89.8064 86.1817 89.8064 86.1817C89.8064 86.1817 87.8745 85.409 84.0107 85.409C80.147 85.409 76.8628 86.1817 76.8628 86.1817C76.8628 86.1817 80.3402 81.3521 83.238 81.3521Z" fill="white" stroke="#2C2E34" stroke-width="0.575" stroke-linejoin="round"/>
<path d="M89.0482 112.896C90.2528 113.014 92.1786 112.652 93.1646 112.41" stroke="white" stroke-width="0.575" stroke-linecap="round" stroke-linejoin="round"/>
<path d="M77.692 109.543C76.3397 109.221 74.4078 108.384 73.4419 107.611" stroke="white" stroke-width="0.575" stroke-linecap="round" stroke-linejoin="round"/>
<path d="M88.3328 92.4321C88.2327 92.0119 87.9891 91.5436 87.3361 91.6038C86.7278 91.6599 86.4077 92.1802 86.4638 92.7885" stroke="#2C2E34" stroke-width="0.575" stroke-linecap="round" stroke-linejoin="round"/>
<path d="M81.7228 92.7022C81.6419 92.2778 81.4199 91.7989 80.7649 91.8293C80.1546 91.8577 79.8111 92.3629 79.8395 92.9731" stroke="#2C2E34" stroke-width="0.575" stroke-linecap="round" stroke-linejoin="round"/>
<path d="M82.7097 94.3102C83.0207 93.2896 84.1001 92.7143 85.1208 93.0253C86.1414 93.3363 86.7167 94.4158 86.4057 95.4364C86.2215 96.041 85.7676 96.4893 85.216 96.6897" stroke="#2C2E34" stroke-width="0.575" stroke-linecap="round" stroke-linejoin="round"/>
<path d="M81.5 88.7244C81.5 87.9226 79.3749 87.7294 78.7954 89.2749" stroke="#2C2E34" stroke-width="0.575" stroke-linecap="round" stroke-linejoin="round"/>
<path d="M86.5229 88.7243C86.5229 87.9225 88.8412 87.5361 89.2276 89.2748" stroke="#2C2E34" stroke-width="0.575" stroke-linecap="round" stroke-linejoin="round"/>
<path d="M82.0513 102.051C79.6496 101.386 78.6618 98.1287 78.4681 96.5833C80.4432 98.3402 85.1357 100.07 88.5026 98.4169C88.0934 101.511 84.453 102.716 82.0513 102.051Z" fill="#2C2E34" stroke="#2C2E34" stroke-width="0.575" stroke-linecap="round" stroke-linejoin="round"/>
<path d="M83.1715 100.968C84.4052 100.176 85.5917 100.818 86.0307 101.238C82.7762 102.863 81.1415 101.086 80.731 99.9944C81.6652 99.2784 82.7472 100.345 83.1715 100.968Z" fill="#E74F4F"/>
</svg>
