<svg width="240" height="343" viewBox="0 0 240 343" fill="none" xmlns="http://www.w3.org/2000/svg">
<circle cx="120" cy="171" r="120" fill="#FEEFEB"/>
<path d="M69.748 305.307L78.4908 310.492C88.5333 297.356 102.122 274.31 108.216 260.826C111.05 254.556 110.948 254.829 111.697 250.735L97.9747 243.907C95.96 259.195 79.5732 291.663 69.748 305.307Z" fill="#FFCAA4" stroke="black" stroke-width="1.03511" stroke-linecap="round" stroke-linejoin="round"/>
<path d="M104.579 198.342C107.047 188.216 112.23 187.975 116.179 185.32C116.179 185.32 121.131 181.655 130.494 180.56C139.856 179.465 144.315 182.476 144.315 182.476C146.536 204.661 142.094 242.831 141.107 245.334C139.873 248.463 125.788 247.041 122.349 247.041L120.128 240.211L113.464 251.705L93.7189 242.127C105.566 212.922 102.11 208.467 104.579 198.342Z" fill="#072A69"/>
<path d="M120.128 240.211L122.349 247.041C125.788 247.041 139.873 248.463 141.107 245.334C142.094 242.831 146.536 204.661 144.315 182.476C144.315 182.476 139.856 179.465 130.494 180.56C121.131 181.655 116.179 185.32 116.179 185.32C112.23 187.975 107.047 188.216 104.579 198.342C102.11 208.467 105.566 212.922 93.7189 242.127L113.464 251.705L120.128 240.211ZM120.128 240.211C123.748 233.461 130.889 218.319 130.494 211.751" stroke="black" stroke-width="1.03511" stroke-linecap="round" stroke-linejoin="round"/>
<path d="M121.503 194.717C120.505 199.271 116.709 207.524 109.518 204.109" stroke="black" stroke-width="1.03511" stroke-linecap="round" stroke-linejoin="round"/>
<path d="M83.3912 319.405C80.8386 318.775 80.2619 314.337 78.7686 310.214L70.665 304.766C70.665 304.766 68.9087 305.438 67.6833 308.323C66.4578 311.208 65.9383 313.066 65.9383 313.066C68.5738 314.543 76.1448 319.572 81.1883 323.846C84.722 326.841 89.3501 322.704 89.7187 321.196C90.0077 320.015 85.1276 319.834 83.3912 319.405Z" fill="#3C4764" stroke="black" stroke-width="1.03511" stroke-linecap="round" stroke-linejoin="round"/>
<path d="M135.663 325.5C133.148 325.534 128.693 320.651 125.735 317.715L116.538 317.839L114.856 329.517C117.671 329.383 127.533 329.353 133.521 330.424C141.006 331.763 139.143 325.453 135.663 325.5Z" fill="#3C4764" stroke="black" stroke-width="1.03511" stroke-linecap="round" stroke-linejoin="round"/>
<path d="M96.4429 251.705L110.88 250.805C106.703 248.442 97.2034 243.934 97.8049 244.806C98.4063 245.679 96.9441 249.706 96.4429 251.705Z" fill="black" stroke="black" stroke-width="1.03511" stroke-linecap="round" stroke-linejoin="round"/>
<path d="M116.6 318.29H125.913C127.233 302.585 134.825 274.992 137.678 256.241C138.216 252.702 137.263 249.536 137.678 246.906H123.218C125.766 259.426 119.868 299.712 116.6 318.29Z" fill="#FFCAA4" stroke="black" stroke-width="1.03511" stroke-linecap="round" stroke-linejoin="round"/>
<path d="M124.135 253.505L137.847 247.506H123.138L124.135 253.505Z" fill="black" stroke="black" stroke-width="1.03511" stroke-linecap="round" stroke-linejoin="round"/>
<path d="M129.675 120.391C147.109 122.026 153.465 117.577 158.277 115.761C159.802 122.734 164.542 130.652 166.721 133.739C159.966 136.136 145.383 135.282 138.937 134.556C150.268 153.515 153.828 176.233 154.191 188.218C145.747 185.222 130.492 186.856 124.772 189.58C120.196 191.759 109.427 190.125 104.615 189.035C104.615 179.782 111.425 167.607 111.425 156.348C108.156 154.441 99.9841 153.079 94.5362 151.717C98.0228 138.86 110.88 123.297 116.873 117.123L129.675 120.391Z" fill="#F57C56"/>
<path d="M111.425 156.348C108.156 154.441 99.9841 153.079 94.5362 151.717C98.0228 138.86 110.88 123.297 116.873 117.123L129.675 120.391C147.109 122.026 153.465 117.577 158.277 115.761C159.802 122.734 164.542 130.652 166.721 133.739C159.966 136.136 145.383 135.282 138.937 134.556M111.425 156.348C111.425 167.607 104.615 179.782 104.615 189.035C109.427 190.125 120.196 191.759 124.772 189.58C130.492 186.856 145.747 185.222 154.191 188.218C153.828 176.233 150.268 153.515 138.937 134.556M111.425 156.348L116.873 159.072C115.511 152.807 117.69 137.288 118.779 129.108M138.937 134.556C138.06 133.031 135.847 130.288 134.851 129.108" stroke="black" stroke-width="1.03511" stroke-linecap="round" stroke-linejoin="round"/>
<path d="M167.266 133.466C168.355 133.248 168.49 129.562 168.036 127.474C166.946 127.746 165.04 128.018 163.678 128.291C164.495 130.198 166.176 133.684 167.266 133.466Z" fill="black" stroke="black" stroke-width="1.03511" stroke-linecap="round" stroke-linejoin="round"/>
<path d="M94.2636 152.036C99.9718 155.58 112.431 162.059 116.6 159.629C109.527 156.845 95.1571 151.429 94.2636 152.036Z" fill="black" stroke="black" stroke-width="1.03511" stroke-linecap="round" stroke-linejoin="round"/>
<path d="M105.391 209.473C103.999 205.211 107.241 177.639 112.787 158.262C107.883 154.449 101.989 153.737 99.1 154.449C95.6764 171.946 98.4231 192.227 98.0152 209.473C96.6966 213.758 96.1744 221.623 98.0152 223.365C99.1667 224.454 99.4391 223.365 99.4391 222.548C99.7781 223.628 99.6866 224.527 100.652 224.527C101.618 224.527 101.945 222.807 101.971 222.245C101.971 223.894 102.577 224.527 103.619 224.527C105.432 224.454 104.279 219.938 105.391 215.906C106.009 217.092 107.748 219.09 109.759 217.601C110.335 217.175 105.869 212.861 105.391 209.473Z" fill="#F5B896"/>
<path d="M101.971 222.245C101.971 223.894 102.577 224.527 103.619 224.527C105.432 224.454 104.279 219.938 105.391 215.906C106.009 217.092 107.748 219.09 109.759 217.601C110.335 217.175 105.869 212.861 105.391 209.473C103.999 205.211 107.241 177.639 112.787 158.262C107.883 154.449 101.989 153.737 99.1 154.449C95.6764 171.946 98.4231 192.227 98.0152 209.473C96.6966 213.758 96.1744 221.623 98.0152 223.365C99.1667 224.454 99.4391 223.365 99.4391 222.548M101.971 222.245C101.945 222.807 101.618 224.527 100.652 224.527C99.6866 224.527 99.7781 223.628 99.4391 222.548M101.971 222.245C101.971 222.245 101.618 220.641 101.971 215.906M99.4391 222.548C99.4391 222.548 98.622 218.189 99.4391 215.906" stroke="black" stroke-width="1.03511" stroke-linecap="round" stroke-linejoin="round"/>
<path d="M114.421 157.99L107.339 189.588C107.339 187.211 111.152 167.532 113.059 157.99H114.421Z" fill="black" stroke="black" stroke-width="1.03511" stroke-linecap="round" stroke-linejoin="round"/>
<path d="M172.986 106.499C172.333 110.204 163.452 114.035 158.549 115.76C158.549 121.644 162.363 126.021 164.27 127.746C167.538 127.746 181.975 121.208 183.337 113.581C184.104 109.291 183.156 83.2545 181.703 71.6322C184.155 69.7254 182.52 65.0947 181.703 62.9155C181.049 61.1721 177.254 62.9155 175.438 64.0051C172.714 59.102 167.314 60.3638 168.9 61.5536C172.169 64.0051 172.351 67.637 172.986 70.2702C175.438 71.9046 173.804 101.868 172.986 106.499Z" fill="#FFCAA4" stroke="black" stroke-width="1.03511" stroke-linecap="round" stroke-linejoin="round"/>
<path d="M176.411 64.9285C176.82 66.0485 179.554 65.4743 181.392 64.8044C183.229 64.1344 183.366 63.327 183.065 62.5023C182.764 61.6775 182.14 61.1477 180.303 61.8176C178.465 62.4876 176.003 63.8085 176.411 64.9285Z" fill="#F5B896" stroke="black" stroke-width="1.03511" stroke-linecap="round" stroke-linejoin="round"/>
<path d="M177.501 67.6524C177.909 68.7724 180.644 68.1982 182.481 67.5282C184.319 66.8582 184.455 66.0509 184.155 65.2261C183.854 64.4014 183.23 63.8715 181.392 64.5415C179.555 65.2115 177.092 66.5323 177.501 67.6524Z" fill="#F5B896" stroke="black" stroke-width="1.03511" stroke-linecap="round" stroke-linejoin="round"/>
<path d="M178.046 70.3764C178.454 71.4964 181.189 70.9222 183.026 70.2522C184.864 69.5822 185 68.7749 184.7 67.9501C184.399 67.1254 183.774 66.5955 181.937 67.2655C180.1 67.9355 177.637 69.2563 178.046 70.3764Z" fill="#F5B896" stroke="black" stroke-width="1.03511" stroke-linecap="round" stroke-linejoin="round"/>
<path d="M145.202 103.517V82.5422C145.202 82.5422 143.023 71.64 129.675 71.3676C116.328 71.0952 114.966 81.991 114.966 81.991C114.966 87.2084 116.618 90.1382 118.663 91.7263C116.41 90.3712 112.999 89.2992 112.242 92.8933C111.37 97.0337 115.874 98.6136 118.235 98.886C119.978 108.256 118.235 115.139 117.145 117.409C119.324 121.767 126.951 121.041 130.493 120.133V113.323C145.093 113.759 145.202 108.42 145.202 103.517Z" fill="#F5B896"/>
<path d="M145.202 82.5422V103.517C145.202 108.42 145.093 113.759 130.493 113.323V120.133C126.951 121.041 119.324 121.767 117.145 117.409C118.235 115.139 119.978 108.256 118.235 98.886C115.874 98.6136 111.37 97.0337 112.242 92.8933C113.114 88.7528 117.508 90.8049 119.597 92.3485C117.145 90.9586 114.966 87.9837 114.966 81.991C114.966 81.991 116.328 71.0952 129.675 71.3676C143.023 71.64 145.202 82.5422 145.202 82.5422Z" stroke="black" stroke-width="1.03511" stroke-linejoin="round"/>
<path d="M130.22 113.323C128.311 113.236 125.176 112.668 124.33 111.098C124.295 111.02 124.26 110.945 124.227 110.871C124.256 110.949 124.291 111.024 124.33 111.098C125.653 113.982 128.522 119.436 130.22 119.86V113.323Z" fill="black"/>
<path d="M130.22 113.323C128.222 113.232 124.881 112.614 124.227 110.871C125.498 113.686 128.477 119.424 130.22 119.86V113.323Z" stroke="black" stroke-width="1.03511" stroke-linecap="round" stroke-linejoin="round"/>
<path d="M138.238 69.0951C143.686 69.0951 145.593 74.7247 145.865 77.5394C151.858 77.5394 155.018 85.3299 150.223 88.1628C145.429 90.9957 141.507 86.9824 140.145 84.6217C139.872 85.5297 138.619 87.1822 135.786 86.5284C132.954 85.8747 131.337 84.9849 130.883 84.6217C130.883 85.0757 130.339 86.256 128.159 87.3456C125.98 88.4352 123.619 87.7996 122.711 87.3456C123.147 90.8323 120.714 92.4304 119.443 92.7936C118.535 91.4316 116.337 89.5248 114.812 92.7936C113.287 96.0623 117.263 98.5139 119.443 99.3311C119.443 99.3311 120.686 111.683 117.808 118.671C114.931 125.66 110.063 126.392 105.977 121.489C104.796 122.124 101.048 123.239 97.1062 120.127C91.9306 116.041 96.8338 111.773 97.1062 110.593C96.3798 109.503 89.9052 108.141 91.2672 100.514C92.0088 96.3617 94.3822 95.4296 97.1062 95.3388C96.3798 92.7056 94.9622 88.2565 98.3495 83.0809C101.387 78.4394 106.731 78.6289 109.092 78.9013C109.001 76.2682 111.489 70.6206 117.808 69.0951C124.128 67.5697 128.795 70.2755 130.883 71.8191C131.065 70.9111 132.79 69.0951 138.238 69.0951Z" fill="black" stroke="black" stroke-width="0.817189" stroke-linecap="round" stroke-linejoin="round"/>
<path d="M135.123 71.3678C137.847 70.2783 143.295 74.484 143.295 78.4501" stroke="white" stroke-width="1.03511" stroke-linecap="round" stroke-linejoin="round"/>
<path d="M140.944 94.8868C140.803 94.2943 140.459 93.6339 139.539 93.7188C138.681 93.7979 138.23 94.5316 138.309 95.3893" stroke="black" stroke-width="0.817189" stroke-linecap="round" stroke-linejoin="round"/>
<path d="M131.624 95.2679C131.51 94.6695 131.196 93.9942 130.273 94.0371C129.412 94.0771 128.928 94.7895 128.968 95.6499" stroke="black" stroke-width="0.817189" stroke-linecap="round" stroke-linejoin="round"/>
<path d="M133.016 97.5355C133.454 96.0964 134.976 95.2853 136.415 95.7238C137.854 96.1622 138.666 97.6843 138.227 99.1234C137.967 99.9759 137.327 100.608 136.55 100.891" stroke="black" stroke-width="0.817189" stroke-linecap="round" stroke-linejoin="round"/>
<path d="M131.31 89.6592C131.31 88.5287 128.313 88.2563 127.496 90.4355" stroke="black" stroke-width="0.817189" stroke-linecap="round" stroke-linejoin="round"/>
<path d="M138.392 89.6593C138.392 88.5288 141.661 87.984 142.205 90.4356" stroke="black" stroke-width="0.817189" stroke-linecap="round" stroke-linejoin="round"/>
<path d="M132.087 108.45C128.7 107.512 127.308 102.919 127.035 100.74C129.819 103.218 136.436 105.657 141.183 103.326C140.606 107.688 135.473 109.387 132.087 108.45Z" fill="black" stroke="black" stroke-width="0.817189" stroke-linecap="round" stroke-linejoin="round"/>
<path d="M133.666 106.924C135.406 105.807 137.079 106.712 137.698 107.304C133.109 109.595 130.804 107.089 130.225 105.55C131.543 104.541 133.068 106.045 133.666 106.924Z" fill="white"/>
<path d="M118.731 128.026C112.141 126.54 114.645 120.762 116.824 117.13C120.093 121.271 127.629 120.672 130.989 119.854C132.623 122.851 134.911 127.372 130.989 128.026C127.066 128.68 125.499 123.123 124.772 121.216C124.772 123.668 124.772 129.388 118.731 128.026Z" fill="white" stroke="black" stroke-width="1.03511" stroke-linecap="round" stroke-linejoin="round"/>
<path d="M130.22 141.646C127.769 130.205 126.134 126.12 124.772 122.578" stroke="black" stroke-width="1.03511" stroke-linecap="round" stroke-linejoin="round"/>
<circle cx="130.665" cy="132.801" r="0.817189" transform="rotate(-17.8188 130.665 132.801)" fill="black"/>
<circle cx="132.499" cy="138.506" r="0.817189" transform="rotate(-17.8188 132.499 138.506)" fill="black"/>
</svg>
